# xmcd CD database file
#
# Track frame offsets:
#	150
#	12466
#	28798
#	41889
#	57865
#	75272
#	91870
#	105446
#	119490
#	132893
#	150214
#	166124
#	181417
#	196872
#	212203
#	226532
#	243742
#	261056
#	277076
#
# Disc length: 3955 seconds
#
# Revision: 1
# Processed by: cddbd v1.5.2PL0 Copyright (c) Steve Scherf et al.
# Submitted via: CDex 1.70beta2
#
DISCID=f20f7113
DTITLE=Various Artist - NU COUNTRY 165
DYEAR=2012
DGENRE=Country
TTITLE0=All Over The Road - Easton Corbin
TTITLE1=Get Your Shine On - Florida Georgia Line
TTITLE2=Mama's Broken Heart - Miranda Lambert
TTITLE3=Borrowed - LeAnn Rimes
TTITLE4=Bruises - Train ft. Ashley Monroe
TTITLE5=Changed - Rascal Flatts
TTITLE6=Party Like Cowboyz - Big and Rich
TTITLE7=American Beautiful - The Henningsens
TTITLE8=Wakin' Up The Rooster - James Wesley
TTITLE9=Chains - Crystal Shawanda
TTITLE10=Moonshine Road - Kix Brooks 
TTITLE11=She's My Kind Of Crazy - Emerson Drive
TTITLE12=Better I Don't - Chris Janson
TTITLE13=Could It Be - Charlie Worsham
TTITLE14=Somebody Will - Bobby Wills
TTITLE15=Little Soldiers - David Kroll
TTITLE16=Lovin' Lazy - Jenna Jentry
TTITLE17=So Much In Love - Bobby Cargill
TTITLE18=Jesse James - Wyatt
EXTD=YEAR: 2012
EXTT0=
EXTT1=
EXTT2=
EXTT3=
EXTT4=
EXTT5=
EXTT6=
EXTT7=
EXTT8=
EXTT9=
EXTT10=
EXTT11=
EXTT12=
EXTT13=
EXTT14=
EXTT15=
EXTT16=
EXTT17=
EXTT18=
PLAYORDER=
